<svg xmlns="http://www.w3.org/2000/svg" xmlns:xlink="http://www.w3.org/1999/xlink" width="500"
    zoomAndPan="magnify" viewBox="0 0 375 374.999991" height="500"
    preserveAspectRatio="xMidYMid meet" version="1.2">
    <defs>
        <clipPath id="7b9351430a">
            <path
                d="M 92.804688 214.359375 L 155.804688 214.359375 L 155.804688 282.609375 L 92.804688 282.609375 Z M 92.804688 214.359375 " />
        </clipPath>
        <clipPath id="d94f25f859">
            <path d="M 245 151 L 271 151 L 271 159.90625 L 245 159.90625 Z M 245 151 " />
        </clipPath>
        <clipPath id="58e5674d94">
            <path d="M 270 103 L 296.257812 103 L 296.257812 130 L 270 130 Z M 270 103 " />
        </clipPath>
        <clipPath id="df8abc9255">
            <path d="M 228.757812 104 L 287 104 L 287 146 L 228.757812 146 Z M 228.757812 104 " />
        </clipPath>
        <clipPath id="23d4000f7a">
            <path d="M 244 150 L 271 150 L 271 159.90625 L 244 159.90625 Z M 244 150 " />
        </clipPath>
        <clipPath id="5522043612">
            <path d="M 233 90.90625 L 283 90.90625 L 283 134 L 233 134 Z M 233 90.90625 " />
        </clipPath>
        <clipPath id="20bead6e5a">
            <path d="M 112.5 112.5 L 262.5 112.5 L 262.5 262.5 L 112.5 262.5 Z M 112.5 112.5 " />
        </clipPath>
    </defs>
    <g id="652ec1f076">
        <path style=" stroke:none;fill-rule:evenodd;fill:#9ac9ff;fill-opacity:1;"
            d="M 100.316406 243.226562 C 98.472656 243.226562 96.96875 244.722656 96.96875 246.5625 C 96.96875 248.398438 98.472656 249.894531 100.316406 249.894531 C 102.160156 249.894531 103.660156 248.398438 103.660156 246.5625 C 103.660156 244.722656 102.160156 243.226562 100.316406 243.226562 Z M 134.992188 250.039062 C 128.460938 250.039062 123.144531 255.335938 123.144531 261.847656 C 123.144531 268.359375 128.460938 273.65625 134.992188 273.65625 C 141.523438 273.65625 146.839844 268.359375 146.839844 261.847656 C 146.839844 255.335938 141.523438 250.039062 134.992188 250.039062 Z M 100.136719 225.941406 C 98.738281 225.496094 97.125 224.867188 95.941406 223.980469 C 95.332031 223.523438 94.601562 222.804688 94.601562 221.988281 C 94.601562 221.171875 95.332031 220.453125 95.941406 219.996094 C 97.125 219.105469 98.738281 218.480469 100.136719 218.035156 C 102.261719 217.363281 104.496094 216.929688 106.703125 216.644531 C 109.265625 216.308594 111.867188 216.160156 114.453125 216.160156 C 117.039062 216.160156 119.636719 216.308594 122.203125 216.644531 C 124.40625 216.929688 126.644531 217.363281 128.765625 218.035156 C 130.167969 218.480469 131.78125 219.109375 132.964844 219.996094 C 133.574219 220.453125 134.304688 221.171875 134.304688 221.988281 C 134.304688 222.804688 133.574219 223.523438 132.964844 223.980469 C 131.78125 224.867188 130.167969 225.496094 128.765625 225.941406 C 126.644531 226.613281 124.40625 227.046875 122.203125 227.332031 C 119.636719 227.667969 117.039062 227.816406 114.453125 227.816406 C 111.867188 227.816406 109.265625 227.667969 106.703125 227.332031 C 104.496094 227.042969 102.257812 226.613281 100.136719 225.941406 Z M 118.957031 254.140625 C 117.460938 254.25 115.957031 254.304688 114.453125 254.304688 C 111.867188 254.304688 109.265625 254.15625 106.703125 253.820312 C 104.496094 253.53125 102.261719 253.097656 100.136719 252.425781 C 98.738281 251.980469 97.125 251.355469 95.941406 250.464844 C 95.332031 250.011719 94.601562 249.289062 94.601562 248.472656 L 94.601562 237.957031 L 95.257812 238.425781 C 96.558594 239.355469 98.203125 240.011719 99.71875 240.492188 C 101.902344 241.1875 104.203125 241.632812 106.472656 241.933594 C 109.113281 242.28125 111.789062 242.433594 114.453125 242.433594 C 117.113281 242.433594 119.792969 242.28125 122.433594 241.933594 C 124.703125 241.632812 127.003906 241.1875 129.1875 240.492188 C 130.703125 240.011719 132.347656 239.355469 133.648438 238.425781 L 134.304688 237.957031 L 134.304688 241.507812 L 132.324219 241.507812 C 132.039062 241.507812 131.785156 241.683594 131.679688 241.949219 L 130.554688 244.871094 L 130.351562 244.925781 C 128.925781 245.3125 127.554688 245.878906 126.273438 246.609375 L 126.089844 246.714844 L 123.21875 245.441406 C 122.957031 245.328125 122.652344 245.382812 122.449219 245.585938 L 118.675781 249.347656 C 118.476562 249.546875 118.417969 249.851562 118.535156 250.113281 L 119.808594 252.972656 L 119.707031 253.15625 C 119.5625 253.40625 119.429688 253.660156 119.296875 253.914062 L 119.191406 254.121094 Z M 131.226562 246.121094 C 131.449219 246.070312 131.628906 245.910156 131.710938 245.699219 L 132.796875 242.882812 L 137.1875 242.882812 L 138.277344 245.699219 C 138.355469 245.910156 138.539062 246.070312 138.757812 246.121094 C 140.429688 246.519531 142.023438 247.175781 143.484375 248.074219 C 143.675781 248.195312 143.917969 248.210938 144.125 248.117188 L 146.894531 246.890625 L 149.996094 249.984375 L 148.769531 252.742188 C 148.675781 252.949219 148.691406 253.191406 148.8125 253.382812 C 149.710938 254.84375 150.371094 256.429688 150.769531 258.09375 C 150.824219 258.316406 150.980469 258.496094 151.195312 258.578125 L 154.019531 259.660156 L 154.019531 264.035156 L 151.195312 265.117188 C 150.980469 265.199219 150.824219 265.382812 150.769531 265.601562 C 150.371094 267.265625 149.710938 268.851562 148.8125 270.3125 C 148.691406 270.503906 148.675781 270.742188 148.769531 270.949219 L 149.996094 273.710938 L 146.894531 276.804688 L 144.128906 275.578125 C 143.917969 275.488281 143.679688 275.503906 143.484375 275.621094 C 142.023438 276.519531 140.429688 277.179688 138.757812 277.574219 C 138.539062 277.628906 138.355469 277.785156 138.273438 277.996094 L 137.1875 280.8125 L 132.796875 280.8125 L 131.710938 277.996094 C 131.628906 277.785156 131.449219 277.625 131.226562 277.574219 C 129.554688 277.179688 127.964844 276.519531 126.5 275.621094 C 126.308594 275.503906 126.066406 275.484375 125.859375 275.578125 L 123.089844 276.804688 L 119.988281 273.710938 L 121.21875 270.953125 C 121.308594 270.746094 121.292969 270.503906 121.175781 270.3125 C 120.273438 268.855469 119.613281 267.265625 119.214844 265.601562 C 119.160156 265.382812 119.003906 265.199219 118.792969 265.121094 L 115.96875 264.035156 L 115.96875 259.660156 L 118.792969 258.578125 C 119.003906 258.496094 119.164062 258.316406 119.214844 258.09375 C 119.613281 256.429688 120.273438 254.84375 121.175781 253.386719 C 121.292969 253.191406 121.308594 252.953125 121.21875 252.742188 L 119.988281 249.984375 L 123.089844 246.890625 L 125.859375 248.117188 C 126.066406 248.210938 126.308594 248.195312 126.5 248.074219 C 127.964844 247.175781 129.554688 246.519531 131.226562 246.121094 Z M 100.316406 235.140625 C 99.230469 235.140625 98.351562 234.261719 98.351562 233.183594 C 98.351562 232.101562 99.230469 231.226562 100.316406 231.226562 C 101.398438 231.226562 102.28125 232.101562 102.28125 233.183594 C 102.28125 234.261719 101.398438 235.140625 100.316406 235.140625 Z M 100.316406 257.980469 C 101.398438 257.980469 102.28125 258.859375 102.28125 259.941406 C 102.28125 261.019531 101.398438 261.898438 100.316406 261.898438 C 99.230469 261.898438 98.351562 261.019531 98.351562 259.941406 C 98.351562 258.859375 99.230469 257.980469 100.316406 257.980469 Z M 100.316406 257.980469 " />
        <g clip-rule="nonzero" clip-path="url(#7b9351430a)">
            <path style=" stroke:none;fill-rule:evenodd;fill:#57a4ff;fill-opacity:1;"
                d="M 131.917969 259.1875 L 128.75 261.847656 L 131.917969 264.507812 C 132.386719 264.902344 132.445312 265.59375 132.050781 266.058594 C 131.832031 266.320312 131.519531 266.453125 131.207031 266.453125 C 130.957031 266.453125 130.703125 266.367188 130.496094 266.195312 L 126.324219 262.691406 C 126.074219 262.480469 125.933594 262.171875 125.933594 261.847656 C 125.933594 261.523438 126.074219 261.214844 126.324219 261.007812 L 130.496094 257.503906 C 130.960938 257.113281 131.65625 257.171875 132.050781 257.636719 C 132.445312 258.101562 132.386719 258.792969 131.917969 259.1875 Z M 139.488281 257.503906 L 143.660156 261.007812 C 143.910156 261.214844 144.054688 261.523438 144.054688 261.847656 C 144.054688 262.171875 143.910156 262.480469 143.660156 262.691406 L 139.488281 266.195312 C 139.28125 266.367188 139.03125 266.453125 138.777344 266.453125 C 138.464844 266.453125 138.152344 266.320312 137.933594 266.058594 C 137.542969 265.59375 137.601562 264.902344 138.066406 264.507812 L 141.238281 261.847656 L 138.066406 259.1875 C 137.601562 258.792969 137.542969 258.097656 137.933594 257.636719 C 138.328125 257.171875 139.023438 257.113281 139.488281 257.503906 Z M 137.339844 266.324219 C 137.496094 266.910156 137.148438 267.515625 136.558594 267.671875 C 136.464844 267.699219 136.367188 267.710938 136.273438 267.710938 C 135.785156 267.710938 135.339844 267.386719 135.207031 266.894531 L 132.644531 257.371094 C 132.488281 256.785156 132.835938 256.179688 133.425781 256.023438 C 134.015625 255.867188 134.621094 256.214844 134.78125 256.800781 Z M 134.992188 271.871094 C 140.539062 271.871094 145.046875 267.375 145.046875 261.847656 C 145.046875 256.324219 140.539062 251.828125 134.992188 251.828125 C 129.449219 251.828125 124.9375 256.320312 124.9375 261.847656 C 124.9375 267.375 129.449219 271.871094 134.992188 271.871094 Z M 134.992188 249.625 C 128.230469 249.625 122.730469 255.109375 122.730469 261.847656 C 122.730469 268.585938 128.230469 274.070312 134.992188 274.070312 C 141.753906 274.070312 147.253906 268.585938 147.253906 261.847656 C 147.253906 255.109375 141.753906 249.625 134.992188 249.625 Z M 153.605469 263.75 L 153.605469 259.945312 L 151.046875 258.960938 C 150.707031 258.832031 150.453125 258.542969 150.367188 258.191406 C 149.980469 256.566406 149.339844 255.023438 148.457031 253.601562 C 148.269531 253.289062 148.242188 252.90625 148.390625 252.578125 L 149.503906 250.078125 L 146.804688 247.382812 L 144.292969 248.496094 C 143.960938 248.640625 143.578125 248.617188 143.265625 248.425781 C 141.839844 247.546875 140.289062 246.910156 138.664062 246.523438 C 138.308594 246.441406 138.019531 246.1875 137.890625 245.847656 L 136.902344 243.296875 L 133.082031 243.296875 L 132.097656 245.847656 C 131.96875 246.1875 131.675781 246.441406 131.324219 246.523438 C 129.695312 246.910156 128.148438 247.546875 126.71875 248.425781 C 126.410156 248.617188 126.023438 248.640625 125.691406 248.496094 L 123.183594 247.382812 L 120.480469 250.078125 L 121.597656 252.578125 C 121.742188 252.90625 121.71875 253.292969 121.527344 253.601562 C 120.648438 255.023438 120.003906 256.566406 119.617188 258.191406 C 119.535156 258.542969 119.28125 258.832031 118.941406 258.960938 L 116.382812 259.945312 L 116.382812 263.75 L 118.941406 264.734375 C 119.28125 264.863281 119.535156 265.152344 119.617188 265.503906 C 120.003906 267.128906 120.648438 268.671875 121.527344 270.097656 C 121.71875 270.40625 121.742188 270.789062 121.59375 271.121094 L 120.480469 273.617188 L 123.183594 276.3125 L 125.691406 275.199219 C 126.023438 275.054688 126.410156 275.078125 126.71875 275.269531 C 128.148438 276.148438 129.695312 276.785156 131.324219 277.171875 C 131.675781 277.253906 131.96875 277.507812 132.097656 277.847656 L 133.082031 280.398438 L 136.902344 280.398438 L 137.886719 277.847656 C 138.019531 277.511719 138.308594 277.257812 138.664062 277.171875 C 140.289062 276.785156 141.839844 276.148438 143.269531 275.269531 C 143.578125 275.078125 143.960938 275.054688 144.296875 275.203125 L 146.804688 276.3125 L 149.503906 273.617188 L 148.390625 271.117188 C 148.242188 270.785156 148.269531 270.402344 148.460938 270.09375 C 149.339844 268.671875 149.980469 267.128906 150.367188 265.503906 C 150.453125 265.152344 150.707031 264.863281 151.046875 264.734375 Z M 114.453125 267.132812 C 109.078125 267.132812 104.039062 266.472656 100.261719 265.277344 C 96.394531 264.050781 95.015625 262.632812 95.015625 261.714844 L 95.015625 252.003906 C 96.132812 252.804688 97.667969 253.519531 99.59375 254.128906 C 103.578125 255.394531 108.855469 256.089844 114.453125 256.089844 C 115.632812 256.089844 116.804688 256.058594 117.960938 255.992188 C 117.835938 256.363281 117.71875 256.734375 117.617188 257.113281 L 114.878906 258.160156 C 114.453125 258.324219 114.171875 258.734375 114.171875 259.1875 L 114.171875 264.507812 C 114.171875 264.960938 114.453125 265.371094 114.878906 265.535156 L 117.617188 266.585938 C 117.65625 266.738281 117.703125 266.890625 117.75 267.046875 C 116.664062 267.101562 115.5625 267.132812 114.453125 267.132812 Z M 95.015625 238.761719 C 96.132812 239.5625 97.667969 240.277344 99.59375 240.886719 C 103.578125 242.152344 108.855469 242.847656 114.453125 242.847656 C 120.050781 242.847656 125.328125 242.152344 129.3125 240.886719 C 131.238281 240.277344 132.773438 239.5625 133.890625 238.761719 L 133.890625 241.097656 L 132.324219 241.097656 C 131.867188 241.097656 131.460938 241.375 131.296875 241.800781 L 130.242188 244.527344 C 128.78125 244.925781 127.382812 245.5 126.066406 246.253906 L 123.386719 245.066406 C 122.96875 244.882812 122.480469 244.972656 122.15625 245.292969 L 118.382812 249.054688 C 118.0625 249.375 117.972656 249.863281 118.15625 250.28125 L 119.347656 252.949219 C 119.199219 253.207031 119.0625 253.464844 118.929688 253.726562 C 117.464844 253.832031 115.964844 253.890625 114.453125 253.890625 C 109.078125 253.890625 104.039062 253.230469 100.261719 252.03125 C 96.394531 250.804688 95.015625 249.390625 95.015625 248.472656 Z M 95.015625 225.519531 L 95.015625 235.230469 C 95.015625 236.148438 96.394531 237.5625 100.261719 238.789062 C 104.039062 239.988281 109.078125 240.644531 114.453125 240.644531 C 119.828125 240.644531 124.867188 239.988281 128.640625 238.789062 C 132.511719 237.5625 133.890625 236.148438 133.890625 235.230469 L 133.890625 225.515625 C 132.773438 226.316406 131.238281 227.035156 129.3125 227.644531 C 125.328125 228.910156 120.050781 229.605469 114.453125 229.605469 C 108.855469 229.605469 103.578125 228.910156 99.59375 227.644531 C 97.667969 227.035156 96.132812 226.316406 95.015625 225.519531 Z M 100.261719 218.429688 C 104.039062 217.230469 109.078125 216.574219 114.453125 216.574219 C 119.828125 216.570312 124.867188 217.230469 128.640625 218.429688 C 132.511719 219.65625 133.890625 221.070312 133.890625 221.988281 C 133.890625 222.902344 132.511719 224.320312 128.640625 225.546875 C 124.867188 226.746094 119.828125 227.402344 114.453125 227.402344 C 109.078125 227.402344 104.039062 226.746094 100.261719 225.546875 C 96.394531 224.320312 95.015625 222.902344 95.015625 221.988281 C 95.015625 221.070312 96.394531 219.65625 100.261719 218.429688 Z M 155.105469 258.160156 L 152.371094 257.113281 C 151.972656 255.65625 151.390625 254.261719 150.640625 252.949219 L 151.832031 250.28125 C 152.015625 249.863281 151.925781 249.378906 151.601562 249.054688 L 147.828125 245.292969 C 147.503906 244.972656 147.015625 244.882812 146.601562 245.066406 L 143.917969 246.253906 C 142.601562 245.5 141.203125 244.925781 139.742188 244.527344 L 138.691406 241.800781 C 138.527344 241.375 138.117188 241.097656 137.660156 241.097656 L 136.097656 241.097656 L 136.097656 221.988281 C 136.097656 219.695312 133.75 217.738281 129.3125 216.332031 C 125.328125 215.066406 120.050781 214.371094 114.453125 214.371094 C 108.855469 214.371094 103.578125 215.066406 99.59375 216.332031 C 95.15625 217.738281 92.808594 219.695312 92.808594 221.988281 L 92.808594 261.714844 C 92.808594 264.007812 95.15625 265.964844 99.59375 267.371094 C 103.578125 268.636719 108.855469 269.332031 114.453125 269.332031 C 115.835938 269.332031 117.210938 269.289062 118.558594 269.203125 C 118.796875 269.730469 119.058594 270.242188 119.347656 270.746094 L 118.15625 273.417969 C 117.96875 273.832031 118.0625 274.320312 118.382812 274.640625 L 122.15625 278.402344 C 122.480469 278.726562 122.96875 278.8125 123.386719 278.628906 L 126.066406 277.441406 C 127.382812 278.191406 128.78125 278.773438 130.242188 279.167969 L 131.292969 281.894531 C 131.457031 282.320312 131.867188 282.601562 132.324219 282.601562 L 137.660156 282.601562 C 138.117188 282.601562 138.527344 282.320312 138.691406 281.894531 L 139.742188 279.167969 C 141.203125 278.773438 142.605469 278.195312 143.917969 277.445312 L 146.597656 278.628906 C 147.015625 278.816406 147.503906 278.726562 147.828125 278.402344 L 151.601562 274.640625 C 151.925781 274.320312 152.015625 273.832031 151.832031 273.417969 L 150.640625 270.746094 C 151.390625 269.433594 151.972656 268.039062 152.371094 266.582031 L 155.105469 265.535156 C 155.53125 265.371094 155.8125 264.960938 155.8125 264.507812 L 155.8125 259.1875 C 155.8125 258.734375 155.53125 258.324219 155.105469 258.160156 Z M 100.316406 261.484375 C 101.171875 261.484375 101.867188 260.792969 101.867188 259.941406 C 101.867188 259.089844 101.171875 258.394531 100.316406 258.394531 C 99.460938 258.394531 98.765625 259.089844 98.765625 259.941406 C 98.765625 260.792969 99.460938 261.484375 100.316406 261.484375 Z M 100.316406 256.191406 C 98.242188 256.191406 96.554688 257.875 96.554688 259.941406 C 96.554688 262.007812 98.242188 263.6875 100.316406 263.6875 C 102.386719 263.6875 104.074219 262.007812 104.074219 259.941406 C 104.074219 257.875 102.386719 256.191406 100.316406 256.191406 Z M 100.316406 245.015625 C 99.460938 245.015625 98.765625 245.710938 98.765625 246.5625 C 98.765625 247.414062 99.460938 248.109375 100.316406 248.109375 C 101.171875 248.109375 101.867188 247.414062 101.867188 246.5625 C 101.867188 245.710938 101.171875 245.015625 100.316406 245.015625 Z M 100.316406 250.308594 C 102.386719 250.308594 104.074219 248.628906 104.074219 246.5625 C 104.074219 244.496094 102.386719 242.816406 100.316406 242.816406 C 98.242188 242.816406 96.554688 244.496094 96.554688 246.5625 C 96.554688 248.628906 98.242188 250.308594 100.316406 250.308594 Z M 100.316406 231.636719 C 101.171875 231.636719 101.867188 232.332031 101.867188 233.183594 C 101.867188 234.035156 101.171875 234.730469 100.316406 234.730469 C 99.460938 234.730469 98.765625 234.035156 98.765625 233.183594 C 98.765625 232.332031 99.460938 231.636719 100.316406 231.636719 Z M 100.316406 236.929688 C 98.242188 236.929688 96.554688 235.25 96.554688 233.183594 C 96.554688 231.117188 98.242188 229.4375 100.316406 229.4375 C 102.386719 229.4375 104.074219 231.117188 104.074219 233.183594 C 104.074219 235.25 102.386719 236.929688 100.316406 236.929688 Z M 100.316406 236.929688 " />
        </g>
        <path style=" stroke:none;fill-rule:evenodd;fill:#f29c1f;fill-opacity:1;"
            d="M 233.84375 99.691406 L 256.609375 101.949219 L 281.640625 99.691406 L 281.640625 94.222656 C 281.640625 92.820312 280.5 91.679688 279.101562 91.679688 L 236.382812 91.679688 C 234.988281 91.679688 233.84375 92.820312 233.84375 94.222656 Z M 233.84375 99.691406 " />
        <path style=" stroke:none;fill-rule:evenodd;fill:#20459e;fill-opacity:1;"
            d="M 250.941406 143.890625 L 264.546875 143.890625 L 264.546875 151.820312 L 250.941406 151.820312 Z M 250.941406 143.890625 " />
        <path style=" stroke:none;fill-rule:evenodd;fill:#2b6bb2;fill-opacity:1;"
            d="M 281.433594 104.964844 C 283.921875 104.964844 285.960938 107.007812 285.960938 109.503906 L 285.960938 140.105469 C 285.960938 142.601562 283.921875 144.644531 281.433594 144.644531 L 234.054688 144.644531 C 231.5625 144.644531 229.527344 142.601562 229.527344 140.105469 L 229.527344 109.503906 C 229.527344 107.007812 231.5625 104.964844 234.054688 104.964844 C 249.847656 104.964844 265.640625 104.964844 281.433594 104.964844 Z M 281.433594 104.964844 " />
        <path style=" stroke:none;fill-rule:evenodd;fill:#57b3fe;fill-opacity:1;"
            d="M 279.25 111.6875 L 279.25 137.921875 L 236.238281 137.921875 L 236.238281 111.6875 C 250.574219 111.6875 264.914062 111.6875 279.25 111.6875 Z M 279.25 111.6875 " />
        <g clip-rule="nonzero" clip-path="url(#d94f25f859)">
            <path style=" stroke:none;fill-rule:evenodd;fill:#2b6bb2;fill-opacity:1;"
                d="M 245.316406 151.070312 L 270.171875 151.070312 L 270.171875 159.175781 L 245.316406 159.175781 Z M 245.316406 151.070312 " />
        </g>
        <path style=" stroke:none;fill-rule:evenodd;fill:#e4eaf8;fill-opacity:1;"
            d="M 281.640625 99.691406 L 281.640625 130.101562 C 281.640625 131.5 280.5 132.644531 279.101562 132.644531 L 236.382812 132.644531 C 234.988281 132.644531 233.84375 131.5 233.84375 130.101562 L 233.84375 99.691406 Z M 281.640625 99.691406 " />
        <path style=" stroke:none;fill-rule:nonzero;fill:#ffce00;fill-opacity:1;"
            d="M 239.90625 94.839844 C 239.90625 94.425781 239.570312 94.085938 239.15625 94.085938 C 238.738281 94.085938 238.402344 94.425781 238.402344 94.839844 L 238.402344 96.527344 C 238.402344 96.941406 238.738281 97.28125 239.15625 97.28125 C 239.570312 97.28125 239.90625 96.941406 239.90625 96.527344 Z M 239.90625 94.839844 " />
        <path style=" stroke:none;fill-rule:nonzero;fill:#ffce00;fill-opacity:1;"
            d="M 244.417969 94.839844 C 244.417969 94.425781 244.082031 94.085938 243.667969 94.085938 C 243.25 94.085938 242.914062 94.425781 242.914062 94.839844 L 242.914062 96.527344 C 242.914062 96.941406 243.25 97.28125 243.667969 97.28125 C 244.082031 97.28125 244.417969 96.941406 244.417969 96.527344 Z M 244.417969 94.839844 " />
        <path style=" stroke:none;fill-rule:nonzero;fill:#ffce00;fill-opacity:1;"
            d="M 248.929688 94.839844 C 248.929688 94.425781 248.59375 94.085938 248.179688 94.085938 C 247.761719 94.085938 247.425781 94.425781 247.425781 94.839844 L 247.425781 96.527344 C 247.425781 96.941406 247.761719 97.28125 248.179688 97.28125 C 248.59375 97.28125 248.929688 96.941406 248.929688 96.527344 Z M 248.929688 94.839844 " />
        <path style=" stroke:none;fill-rule:nonzero;fill:#ffce00;fill-opacity:1;"
            d="M 253.441406 94.839844 C 253.441406 94.425781 253.105469 94.085938 252.691406 94.085938 C 252.277344 94.085938 251.9375 94.425781 251.9375 94.839844 L 251.9375 96.527344 C 251.9375 96.941406 252.277344 97.28125 252.691406 97.28125 C 253.105469 97.28125 253.441406 96.941406 253.441406 96.527344 Z M 253.441406 94.839844 " />
        <path style=" stroke:none;fill-rule:evenodd;fill:#946ae0;fill-opacity:1;"
            d="M 286.292969 107.101562 C 287.539062 107.515625 288.675781 108.179688 289.636719 109.039062 L 292.402344 107.4375 L 295.398438 112.636719 L 292.632812 114.234375 C 292.761719 114.859375 292.828125 115.507812 292.828125 116.167969 C 292.828125 116.832031 292.761719 117.480469 292.632812 118.105469 L 295.398438 119.703125 L 292.402344 124.902344 L 289.636719 123.300781 C 288.675781 124.160156 287.539062 124.824219 286.292969 125.238281 L 286.292969 128.4375 L 280.300781 128.4375 L 280.300781 125.238281 C 279.050781 124.824219 277.914062 124.160156 276.953125 123.300781 L 274.1875 124.902344 L 271.191406 119.703125 L 273.957031 118.105469 C 273.828125 117.480469 273.761719 116.832031 273.761719 116.167969 C 273.761719 115.507812 273.828125 114.859375 273.957031 114.234375 L 271.191406 112.636719 L 274.1875 107.4375 L 276.953125 109.039062 C 277.914062 108.179688 279.050781 107.515625 280.300781 107.101562 L 280.300781 103.902344 L 286.292969 103.902344 Z M 286.292969 107.101562 " />
        <path style=" stroke:none;fill-rule:nonzero;fill:#e4eaf8;fill-opacity:1;"
            d="M 287.933594 116.167969 C 287.933594 116.472656 287.902344 116.777344 287.84375 117.074219 C 287.785156 117.375 287.695312 117.664062 287.578125 117.945312 C 287.460938 118.230469 287.320312 118.496094 287.148438 118.75 C 286.980469 119.003906 286.789062 119.238281 286.574219 119.453125 C 286.359375 119.667969 286.125 119.863281 285.871094 120.03125 C 285.617188 120.199219 285.351562 120.34375 285.070312 120.460938 C 284.789062 120.578125 284.5 120.664062 284.199219 120.722656 C 283.902344 120.785156 283.601562 120.8125 283.296875 120.8125 C 282.992188 120.8125 282.691406 120.785156 282.390625 120.722656 C 282.09375 120.664062 281.800781 120.578125 281.519531 120.460938 C 281.238281 120.34375 280.972656 120.199219 280.71875 120.03125 C 280.464844 119.863281 280.234375 119.667969 280.015625 119.453125 C 279.800781 119.238281 279.609375 119.003906 279.441406 118.75 C 279.273438 118.496094 279.128906 118.230469 279.011719 117.945312 C 278.894531 117.664062 278.808594 117.375 278.75 117.074219 C 278.6875 116.777344 278.660156 116.472656 278.660156 116.167969 C 278.660156 115.863281 278.6875 115.5625 278.75 115.261719 C 278.808594 114.964844 278.894531 114.675781 279.011719 114.390625 C 279.128906 114.109375 279.273438 113.84375 279.441406 113.589844 C 279.609375 113.335938 279.800781 113.101562 280.015625 112.886719 C 280.234375 112.671875 280.464844 112.476562 280.71875 112.308594 C 280.972656 112.140625 281.238281 111.996094 281.519531 111.878906 C 281.800781 111.761719 282.09375 111.675781 282.390625 111.613281 C 282.691406 111.554688 282.992188 111.527344 283.296875 111.527344 C 283.601562 111.527344 283.902344 111.554688 284.199219 111.613281 C 284.5 111.675781 284.789062 111.761719 285.070312 111.878906 C 285.351562 111.996094 285.617188 112.140625 285.871094 112.308594 C 286.125 112.476562 286.359375 112.671875 286.574219 112.886719 C 286.789062 113.101562 286.980469 113.335938 287.148438 113.589844 C 287.320312 113.84375 287.460938 114.109375 287.578125 114.390625 C 287.695312 114.675781 287.785156 114.964844 287.84375 115.261719 C 287.902344 115.5625 287.933594 115.863281 287.933594 116.167969 Z M 287.933594 116.167969 " />
        <path style=" stroke:none;fill-rule:evenodd;fill:#000000;fill-opacity:1;"
            d="M 243.984375 114.59375 C 243.796875 114.59375 243.605469 114.523438 243.460938 114.378906 L 240.464844 111.457031 C 240.320312 111.316406 240.238281 111.121094 240.238281 110.917969 C 240.238281 110.714844 240.320312 110.519531 240.464844 110.378906 L 243.460938 107.457031 C 243.757812 107.164062 244.234375 107.171875 244.523438 107.46875 C 244.8125 107.765625 244.808594 108.242188 244.507812 108.535156 L 242.066406 110.917969 L 244.507812 113.300781 C 244.808594 113.589844 244.8125 114.066406 244.523438 114.363281 C 244.375 114.515625 244.179688 114.59375 243.984375 114.59375 Z M 243.984375 114.59375 " />
        <path style=" stroke:none;fill-rule:evenodd;fill:#000000;fill-opacity:1;"
            d="M 252.929688 114.59375 C 252.734375 114.59375 252.539062 114.515625 252.390625 114.363281 C 252.101562 114.066406 252.109375 113.589844 252.40625 113.300781 L 254.847656 110.917969 L 252.40625 108.535156 C 252.109375 108.242188 252.101562 107.765625 252.390625 107.46875 C 252.683594 107.171875 253.15625 107.164062 253.457031 107.457031 L 256.449219 110.378906 C 256.59375 110.519531 256.675781 110.714844 256.675781 110.917969 C 256.675781 111.121094 256.59375 111.316406 256.449219 111.457031 L 253.457031 114.378906 C 253.308594 114.519531 253.121094 114.59375 252.929688 114.59375 Z M 252.929688 114.59375 " />
        <path style=" stroke:none;fill-rule:evenodd;fill:#000000;fill-opacity:1;"
            d="M 247.550781 116.207031 C 247.492188 116.207031 247.4375 116.203125 247.378906 116.1875 C 246.976562 116.09375 246.722656 115.691406 246.816406 115.285156 L 248.882812 106.261719 C 248.976562 105.859375 249.378906 105.605469 249.785156 105.699219 C 250.1875 105.789062 250.441406 106.195312 250.347656 106.601562 L 248.28125 115.621094 C 248.199219 115.972656 247.890625 116.207031 247.550781 116.207031 Z M 247.550781 116.207031 " />
        <path style=" stroke:none;fill-rule:evenodd;fill:#000000;fill-opacity:1;"
            d="M 267.511719 121.453125 L 240.988281 121.453125 C 240.574219 121.453125 240.238281 121.117188 240.238281 120.699219 C 240.238281 120.285156 240.574219 119.945312 240.988281 119.945312 L 267.511719 119.945312 C 267.925781 119.945312 268.261719 120.285156 268.261719 120.699219 C 268.261719 121.117188 267.925781 121.453125 267.511719 121.453125 Z M 267.511719 121.453125 " />
        <path style=" stroke:none;fill-rule:evenodd;fill:#000000;fill-opacity:1;"
            d="M 267.511719 126.660156 L 240.988281 126.660156 C 240.574219 126.660156 240.238281 126.324219 240.238281 125.90625 C 240.238281 125.492188 240.574219 125.152344 240.988281 125.152344 L 267.511719 125.152344 C 267.925781 125.152344 268.261719 125.492188 268.261719 125.90625 C 268.261719 126.324219 267.925781 126.660156 267.511719 126.660156 Z M 267.511719 126.660156 " />
        <path style=" stroke:none;fill-rule:evenodd;fill:#000000;fill-opacity:1;"
            d="M 267.511719 113.921875 L 259.625 113.921875 C 259.210938 113.921875 258.875 113.585938 258.875 113.167969 C 258.875 112.753906 259.210938 112.414062 259.625 112.414062 L 267.511719 112.414062 C 267.925781 112.414062 268.261719 112.753906 268.261719 113.167969 C 268.261719 113.585938 267.925781 113.921875 267.511719 113.921875 Z M 267.511719 113.921875 " />
        <path style=" stroke:none;fill-rule:evenodd;fill:#000000;fill-opacity:1;"
            d="M 267.511719 109.417969 L 259.625 109.417969 C 259.210938 109.417969 258.875 109.082031 258.875 108.664062 C 258.875 108.25 259.210938 107.914062 259.625 107.914062 L 267.511719 107.914062 C 267.925781 107.914062 268.261719 108.25 268.261719 108.664062 C 268.261719 109.082031 267.925781 109.417969 267.511719 109.417969 Z M 267.511719 109.417969 " />
        <path style=" stroke:none;fill-rule:evenodd;fill:#000000;fill-opacity:1;"
            d="M 283.296875 112.277344 C 281.15625 112.277344 279.410156 114.023438 279.410156 116.167969 C 279.414062 118.3125 281.15625 120.058594 283.296875 120.058594 C 285.4375 120.058594 287.179688 118.3125 287.179688 116.167969 C 287.179688 114.023438 285.4375 112.277344 283.296875 112.277344 Z M 283.296875 121.566406 C 280.324219 121.566406 277.910156 119.144531 277.910156 116.167969 C 277.910156 113.191406 280.324219 110.773438 283.296875 110.773438 C 286.265625 110.773438 288.683594 113.191406 288.683594 116.167969 C 288.683594 119.144531 286.265625 121.566406 283.296875 121.566406 Z M 283.296875 121.566406 " />
        <g clip-rule="nonzero" clip-path="url(#58e5674d94)">
            <path style=" stroke:none;fill-rule:evenodd;fill:#000000;fill-opacity:1;"
                d="M 281.050781 127.683594 L 285.539062 127.683594 L 285.539062 125.238281 C 285.539062 124.914062 285.75 124.625 286.054688 124.523438 C 287.199219 124.144531 288.234375 123.542969 289.136719 122.738281 C 289.378906 122.523438 289.730469 122.488281 290.011719 122.648438 L 292.128906 123.871094 L 294.371094 119.980469 L 292.257812 118.757812 C 291.976562 118.59375 291.832031 118.269531 291.898438 117.953125 C 292.019531 117.371094 292.078125 116.769531 292.078125 116.167969 C 292.078125 115.570312 292.019531 114.96875 291.898438 114.386719 C 291.832031 114.066406 291.976562 113.742188 292.257812 113.582031 L 294.371094 112.359375 L 292.128906 108.464844 L 290.011719 109.6875 C 289.730469 109.851562 289.378906 109.816406 289.136719 109.597656 C 288.234375 108.792969 287.199219 108.191406 286.054688 107.816406 C 285.75 107.710938 285.539062 107.425781 285.539062 107.101562 L 285.539062 104.65625 L 281.050781 104.65625 L 281.050781 107.101562 C 281.050781 107.425781 280.84375 107.714844 280.535156 107.816406 C 279.394531 108.191406 278.359375 108.792969 277.457031 109.597656 C 277.214844 109.816406 276.859375 109.851562 276.578125 109.6875 L 274.464844 108.464844 L 272.21875 112.359375 L 274.332031 113.582031 C 274.613281 113.742188 274.757812 114.066406 274.695312 114.386719 C 274.574219 114.96875 274.511719 115.566406 274.511719 116.167969 C 274.511719 116.769531 274.574219 117.371094 274.695312 117.953125 C 274.757812 118.269531 274.613281 118.59375 274.332031 118.757812 L 272.21875 119.980469 L 274.464844 123.871094 L 276.578125 122.648438 C 276.859375 122.488281 277.214844 122.523438 277.457031 122.738281 C 278.359375 123.542969 279.394531 124.144531 280.535156 124.523438 C 280.84375 124.625 281.050781 124.914062 281.050781 125.238281 Z M 286.292969 129.1875 L 280.300781 129.1875 C 279.886719 129.1875 279.546875 128.851562 279.546875 128.4375 L 279.546875 125.765625 C 278.582031 125.390625 277.6875 124.871094 276.875 124.21875 L 274.566406 125.554688 C 274.203125 125.761719 273.746094 125.640625 273.539062 125.277344 L 270.542969 120.082031 C 270.441406 119.90625 270.414062 119.703125 270.464844 119.507812 C 270.515625 119.316406 270.644531 119.152344 270.816406 119.050781 L 273.125 117.714844 C 273.046875 117.207031 273.007812 116.6875 273.007812 116.167969 C 273.007812 115.652344 273.046875 115.132812 273.125 114.621094 L 270.816406 113.285156 C 270.457031 113.078125 270.332031 112.617188 270.542969 112.257812 L 273.539062 107.058594 C 273.746094 106.699219 274.203125 106.574219 274.566406 106.785156 L 276.875 108.121094 C 277.6875 107.46875 278.582031 106.949219 279.546875 106.570312 L 279.546875 103.902344 C 279.546875 103.484375 279.882812 103.148438 280.300781 103.148438 L 286.292969 103.148438 C 286.707031 103.148438 287.042969 103.484375 287.042969 103.902344 L 287.042969 106.570312 C 288.011719 106.949219 288.90625 107.46875 289.71875 108.121094 L 292.027344 106.785156 C 292.386719 106.574219 292.847656 106.699219 293.054688 107.058594 L 296.050781 112.257812 C 296.257812 112.617188 296.136719 113.078125 295.777344 113.285156 L 293.46875 114.621094 C 293.542969 115.132812 293.582031 115.652344 293.582031 116.167969 C 293.582031 116.6875 293.542969 117.207031 293.46875 117.714844 L 295.777344 119.050781 C 295.949219 119.152344 296.074219 119.316406 296.125 119.507812 C 296.179688 119.703125 296.152344 119.90625 296.050781 120.082031 L 293.054688 125.277344 C 292.847656 125.640625 292.386719 125.761719 292.027344 125.554688 L 289.71875 124.21875 C 288.90625 124.871094 288.011719 125.390625 287.042969 125.765625 L 287.042969 128.4375 C 287.042969 128.851562 286.707031 129.191406 286.292969 129.1875 Z M 286.292969 129.1875 " />
        </g>
        <g clip-rule="nonzero" clip-path="url(#df8abc9255)">
            <path style=" stroke:none;fill-rule:evenodd;fill:#000000;fill-opacity:1;"
                d="M 281.429688 145.394531 L 234.054688 145.394531 C 231.140625 145.394531 228.773438 143.023438 228.773438 140.105469 L 228.773438 109.503906 C 228.773438 106.671875 230.984375 104.351562 233.808594 104.21875 C 234.222656 104.199219 234.574219 104.519531 234.59375 104.9375 C 234.613281 105.351562 234.292969 105.703125 233.875 105.722656 C 231.859375 105.816406 230.277344 107.476562 230.277344 109.503906 L 230.277344 140.105469 C 230.277344 142.191406 231.96875 143.890625 234.054688 143.890625 L 281.429688 143.890625 C 283.511719 143.890625 285.207031 142.191406 285.207031 140.105469 L 285.207031 128.4375 C 285.207031 128.019531 285.542969 127.683594 285.957031 127.683594 C 286.371094 127.683594 286.710938 128.019531 286.710938 128.4375 L 286.710938 140.105469 C 286.710938 143.023438 284.339844 145.394531 281.429688 145.394531 Z M 281.429688 145.394531 " />
        </g>
        <path style=" stroke:none;fill-rule:evenodd;fill:#000000;fill-opacity:1;"
            d="M 279.246094 138.675781 L 236.234375 138.675781 C 235.820312 138.675781 235.480469 138.335938 235.480469 137.921875 L 235.480469 132.644531 C 235.480469 132.226562 235.820312 131.890625 236.234375 131.890625 C 236.648438 131.890625 236.984375 132.226562 236.984375 132.644531 L 236.984375 137.167969 L 278.496094 137.167969 L 278.496094 132.644531 C 278.496094 132.226562 278.832031 131.890625 279.246094 131.890625 C 279.664062 131.890625 280 132.226562 280 132.644531 L 280 137.921875 C 280 138.335938 279.664062 138.675781 279.246094 138.675781 Z M 279.246094 138.675781 " />
        <path style=" stroke:none;fill-rule:evenodd;fill:#000000;fill-opacity:1;"
            d="M 250.9375 151.820312 C 250.523438 151.820312 250.183594 151.484375 250.183594 151.066406 L 250.183594 144.640625 C 250.183594 144.226562 250.523438 143.890625 250.9375 143.890625 C 251.351562 143.890625 251.6875 144.226562 251.6875 144.644531 L 251.6875 151.066406 C 251.6875 151.484375 251.351562 151.820312 250.9375 151.820312 Z M 264.542969 151.820312 C 264.128906 151.820312 263.792969 151.484375 263.792969 151.066406 L 263.792969 144.640625 C 263.792969 144.226562 264.128906 143.890625 264.542969 143.890625 C 264.960938 143.890625 265.296875 144.226562 265.296875 144.644531 L 265.296875 151.066406 C 265.296875 151.484375 264.960938 151.820312 264.542969 151.820312 Z M 264.542969 151.820312 " />
        <g clip-rule="nonzero" clip-path="url(#23d4000f7a)">
            <path style=" stroke:none;fill-rule:evenodd;fill:#000000;fill-opacity:1;"
                d="M 246.066406 158.421875 L 269.417969 158.421875 L 269.417969 151.820312 L 246.066406 151.820312 Z M 270.167969 159.925781 L 245.3125 159.925781 C 244.898438 159.925781 244.5625 159.589844 244.5625 159.171875 L 244.5625 151.066406 C 244.5625 150.652344 244.898438 150.316406 245.3125 150.316406 L 270.167969 150.3125 C 270.585938 150.3125 270.921875 150.652344 270.921875 151.066406 L 270.921875 159.171875 C 270.921875 159.589844 270.585938 159.925781 270.167969 159.925781 Z M 270.167969 159.925781 " />
        </g>
        <g clip-rule="nonzero" clip-path="url(#5522043612)">
            <path style=" stroke:none;fill-rule:evenodd;fill:#000000;fill-opacity:1;"
                d="M 279.101562 133.402344 L 236.378906 133.402344 C 234.566406 133.402344 233.089844 131.921875 233.089844 130.105469 L 233.089844 94.222656 C 233.089844 92.402344 234.566406 90.925781 236.378906 90.925781 L 279.101562 90.925781 C 280.917969 90.925781 282.394531 92.402344 282.394531 94.222656 L 282.394531 103.902344 C 282.394531 104.316406 282.054688 104.65625 281.640625 104.65625 C 281.226562 104.65625 280.886719 104.316406 280.886719 103.902344 L 280.886719 94.222656 C 280.886719 93.234375 280.085938 92.433594 279.101562 92.433594 L 236.378906 92.433594 C 235.394531 92.433594 234.59375 93.234375 234.59375 94.222656 L 234.59375 130.105469 C 234.59375 131.089844 235.394531 131.894531 236.378906 131.894531 L 279.101562 131.894531 C 280.085938 131.894531 280.886719 131.089844 280.886719 130.105469 L 280.886719 128.4375 C 280.886719 128.019531 281.226562 127.683594 281.640625 127.683594 C 282.054688 127.683594 282.394531 128.019531 282.394531 128.4375 L 282.394531 130.105469 C 282.394531 131.921875 280.917969 133.402344 279.101562 133.402344 Z M 279.101562 133.402344 " />
        </g>
        <path style=" stroke:none;fill-rule:evenodd;fill:#000000;fill-opacity:1;"
            d="M 281.640625 100.445312 L 233.839844 100.445312 C 233.425781 100.445312 233.089844 100.105469 233.089844 99.691406 C 233.089844 99.273438 233.425781 98.9375 233.839844 98.9375 L 281.640625 98.9375 C 282.054688 98.9375 282.390625 99.273438 282.390625 99.691406 C 282.390625 100.105469 282.054688 100.445312 281.640625 100.445312 Z M 281.640625 100.445312 " />
        <path style=" stroke:none;fill-rule:evenodd;fill:#000000;fill-opacity:1;"
            d="M 239.152344 97.28125 C 238.738281 97.28125 238.398438 96.945312 238.398438 96.527344 L 238.398438 94.839844 C 238.398438 94.425781 238.738281 94.089844 239.152344 94.089844 C 239.566406 94.089844 239.902344 94.425781 239.902344 94.839844 L 239.902344 96.527344 C 239.902344 96.945312 239.566406 97.28125 239.152344 97.28125 Z M 239.152344 97.28125 " />
        <path style=" stroke:none;fill-rule:evenodd;fill:#000000;fill-opacity:1;"
            d="M 243.664062 97.28125 C 243.25 97.28125 242.910156 96.945312 242.910156 96.527344 L 242.910156 94.839844 C 242.910156 94.425781 243.25 94.089844 243.664062 94.089844 C 244.078125 94.089844 244.414062 94.425781 244.414062 94.839844 L 244.414062 96.527344 C 244.414062 96.945312 244.078125 97.28125 243.664062 97.28125 Z M 243.664062 97.28125 " />
        <path style=" stroke:none;fill-rule:evenodd;fill:#000000;fill-opacity:1;"
            d="M 248.175781 97.28125 C 247.761719 97.28125 247.421875 96.945312 247.421875 96.527344 L 247.421875 94.839844 C 247.421875 94.425781 247.761719 94.089844 248.175781 94.089844 C 248.589844 94.089844 248.929688 94.425781 248.929688 94.839844 L 248.929688 96.527344 C 248.929688 96.945312 248.589844 97.28125 248.175781 97.28125 Z M 248.175781 97.28125 " />
        <path style=" stroke:none;fill-rule:evenodd;fill:#000000;fill-opacity:1;"
            d="M 252.6875 97.28125 C 252.273438 97.28125 251.9375 96.945312 251.9375 96.527344 L 251.9375 94.839844 C 251.9375 94.425781 252.273438 94.089844 252.6875 94.089844 C 253.101562 94.089844 253.441406 94.425781 253.441406 94.839844 L 253.441406 96.527344 C 253.441406 96.945312 253.101562 97.28125 252.6875 97.28125 Z M 252.6875 97.28125 " />
        <g clip-rule="nonzero" clip-path="url(#20bead6e5a)">
            <path
                style="fill-rule:nonzero;fill:#181f2a;fill-opacity:1;stroke-width:6.94;stroke-linecap:butt;stroke-linejoin:miter;stroke:#000000;stroke-opacity:1;stroke-miterlimit:2.613;"
                d="M 2833.323786 1416.650199 C 2833.323786 1439.87557 2832.806023 1463.026975 2831.622564 1486.17838 C 2830.513072 1509.329785 2828.811851 1532.48119 2826.5189 1555.558629 C 2824.225949 1578.636067 2821.415236 1601.63954 2818.012793 1624.569047 C 2814.61035 1647.498553 2810.616178 1670.280127 2806.104242 1693.061702 C 2801.592307 1715.76931 2796.488643 1738.402952 2790.867216 1760.888661 C 2785.245788 1783.374371 2779.032632 1805.712148 2772.301712 1827.901993 C 2765.644758 1850.091838 2758.32211 1872.133751 2750.555664 1893.953765 C 2742.715252 1915.773779 2734.357077 1937.371895 2725.481139 1958.822079 C 2716.605201 1980.198296 2707.2115 2001.426581 2697.300036 2022.359002 C 2687.388572 2043.365388 2676.959344 2064.001944 2666.08632 2084.490568 C 2655.13933 2104.905225 2643.674577 2125.097984 2631.766027 2144.994878 C 2619.857477 2164.891773 2607.50513 2184.418836 2594.561053 2203.724002 C 2581.690943 2223.029167 2568.377036 2241.964501 2554.545366 2260.603971 C 2540.713696 2279.169475 2526.512195 2297.439114 2511.792931 2315.412888 C 2497.073668 2333.312696 2481.910607 2350.842674 2466.377715 2368.076787 C 2450.770858 2385.236934 2434.794169 2402.02725 2418.373684 2418.373769 C 2402.027165 2434.794254 2385.236849 2450.770943 2368.076702 2466.3778 C 2350.842589 2481.910692 2333.312611 2497.073753 2315.412803 2511.793017 C 2297.439029 2526.51228 2279.169389 2540.713781 2260.603886 2554.545451 C 2241.964416 2568.377121 2223.029082 2581.691028 2203.723916 2594.561138 C 2184.418751 2607.505215 2164.891688 2619.857562 2144.994793 2631.766112 C 2125.097899 2643.674662 2104.90514 2655.139415 2084.490482 2666.086406 C 2064.001859 2676.95943 2043.365303 2687.388657 2022.358916 2697.300121 C 2001.426496 2707.211585 1980.198211 2716.605286 1958.821994 2725.481224 C 1937.37181 2734.357162 1915.773694 2742.715337 1893.95368 2750.555749 C 1872.133666 2758.322195 1850.091753 2765.644844 1827.901908 2772.301797 C 1805.712063 2779.032717 1783.374286 2785.245873 1760.888576 2790.867301 C 1738.402866 2796.488728 1715.769224 2801.592393 1693.061616 2806.104328 C 1670.280042 2810.616263 1647.498468 2814.610435 1624.568961 2818.012878 C 1601.639455 2821.415321 1578.635982 2824.226034 1555.558543 2826.518985 C 1532.481105 2828.811936 1509.3297 2830.513157 1486.178295 2831.622649 C 1463.02689 2832.806108 1439.875485 2833.323871 1416.650114 2833.323871 C 1393.498709 2833.323871 1370.347304 2832.806108 1347.121933 2831.622649 C 1323.970528 2830.513157 1300.893089 2828.811936 1277.81565 2826.518985 C 1254.738211 2824.226034 1231.734738 2821.415321 1208.805232 2818.012878 C 1185.875725 2814.610435 1163.020185 2810.616263 1140.312577 2806.104328 C 1117.531003 2801.592393 1094.971327 2796.488728 1072.411651 2790.867301 C 1049.925942 2785.245873 1027.588164 2779.032717 1005.398319 2772.301797 C 983.28244 2765.644844 961.240528 2758.322195 939.420513 2750.555749 C 917.600499 2742.715337 895.928417 2734.357162 874.5522 2725.481224 C 853.102016 2716.605286 831.947697 2707.211585 810.941311 2697.300121 C 790.00889 2687.388657 769.298368 2676.95943 748.883711 2666.086406 C 728.395087 2655.139415 708.276295 2643.674662 688.3794 2631.766112 C 668.482506 2619.857562 648.881476 2607.505215 629.576311 2594.561138 C 610.345112 2581.691028 591.409777 2568.377121 572.770308 2554.545451 C 554.130838 2540.713781 535.861199 2526.51228 517.96139 2511.793017 C 499.987616 2497.073753 482.457638 2481.910692 465.297492 2466.3778 C 448.137345 2450.770943 431.347029 2434.794254 414.926543 2418.373769 C 398.506058 2402.02725 382.52937 2385.236934 366.996478 2368.076787 C 351.389621 2350.842674 336.300526 2333.312696 321.581262 2315.412888 C 306.861998 2297.439114 292.586531 2279.169475 278.754861 2260.603971 C 264.997157 2241.964501 251.609284 2223.029167 238.739174 2203.724002 C 225.869064 2184.418836 213.442751 2164.891773 201.534201 2144.994878 C 189.62565 2125.097984 178.234863 2104.905225 167.287873 2084.490568 C 156.340883 2064.001944 145.911656 2043.365388 136.000192 2022.359002 C 126.088727 2001.426581 116.695026 1980.198296 107.819088 1958.822079 C 98.94315 1937.371895 90.658942 1915.773779 82.81853 1893.953765 C 74.978118 1872.133751 67.729435 1850.091838 60.998515 1827.901993 C 54.267596 1805.712148 48.054439 1783.374371 42.433012 1760.888661 C 36.811584 1738.402952 31.70792 1715.76931 27.195985 1693.061702 C 22.68405 1670.280127 18.763844 1647.498553 15.361401 1624.569047 C 11.958958 1601.63954 9.074278 1578.636067 6.855294 1555.558629 C 4.562343 1532.48119 2.861121 1509.329785 1.677663 1486.17838 C 0.568171 1463.026975 -0.0235584 1439.87557 -0.0235584 1416.650199 C -0.0235584 1393.498794 0.568171 1370.347389 1.677663 1347.122018 C 2.861121 1323.970613 4.562343 1300.893174 6.855294 1277.815735 C 9.074278 1254.738296 11.958958 1231.734824 15.361401 1208.805317 C 18.763844 1185.875811 22.68405 1163.02027 27.195985 1140.312662 C 31.70792 1117.531088 36.811584 1094.971412 42.433012 1072.411736 C 48.054439 1049.926027 54.267596 1027.58825 60.998515 1005.398405 C 67.729435 983.282526 74.978118 961.240613 82.81853 939.420599 C 90.658942 917.600584 98.94315 895.928502 107.819088 874.552285 C 116.695026 853.102102 126.088727 831.947783 136.000192 810.941396 C 145.911656 790.008976 156.340883 769.298454 167.287873 748.883796 C 178.234863 728.395173 189.62565 708.27638 201.534201 688.379485 C 213.442751 668.482591 225.869064 648.881561 238.739174 629.576396 C 251.609284 610.345197 264.997157 591.409863 278.754861 572.770393 C 292.586531 554.130923 306.861998 535.861284 321.581262 517.961476 C 336.300526 499.987701 351.389621 482.457724 366.996478 465.297577 C 382.52937 448.13743 398.506058 431.347114 414.926543 414.926629 C 431.347029 398.506143 448.137345 382.529455 465.297492 366.996563 C 482.457638 351.389706 499.987616 336.300611 517.96139 321.581347 C 535.861199 306.862083 554.130838 292.586616 572.770308 278.754946 C 591.409777 264.997242 610.345112 251.609369 629.576311 238.739259 C 648.881476 225.869149 668.482506 213.442836 688.3794 201.534286 C 708.276295 189.625736 728.395087 178.234948 748.883711 167.287958 C 769.298368 156.340968 790.00889 145.911741 810.941311 136.000277 C 831.947697 126.088813 853.102016 116.695112 874.5522 107.819174 C 895.928417 98.943236 917.600499 90.659027 939.420513 82.818615 C 961.240528 74.978203 983.28244 67.72952 1005.398319 60.998601 C 1027.588164 54.267681 1049.925942 48.054524 1072.411651 42.433097 C 1094.971327 36.81167 1117.531003 31.708005 1140.312577 27.19607 C 1163.020185 22.684135 1185.875725 18.763929 1208.805232 15.361486 C 1231.734738 11.959043 1254.738211 9.074363 1277.81565 6.855379 C 1300.893089 4.562428 1323.970528 2.861207 1347.121933 1.677748 C 1370.347304 0.568256 1393.498709 -0.0234732 1416.650114 -0.0234732 C 1439.875485 -0.0234732 1463.02689 0.568256 1486.178295 1.677748 C 1509.3297 2.861207 1532.481105 4.562428 1555.558543 6.855379 C 1578.635982 9.074363 1601.639455 11.959043 1624.568961 15.361486 C 1647.498468 18.763929 1670.280042 22.684135 1693.061616 27.19607 C 1715.769224 31.708005 1738.402866 36.81167 1760.888576 42.433097 C 1783.374286 48.054524 1805.712063 54.267681 1827.901908 60.998601 C 1850.091753 67.72952 1872.133666 74.978203 1893.95368 82.818615 C 1915.773694 90.659027 1937.37181 98.943236 1958.821994 107.819174 C 1980.198211 116.695112 2001.426496 126.088813 2022.358916 136.000277 C 2043.365303 145.911741 2064.001859 156.340968 2084.490482 167.287958 C 2104.90514 178.234948 2125.097899 189.625736 2144.994793 201.534286 C 2164.891688 213.442836 2184.418751 225.869149 2203.723916 238.739259 C 2223.029082 251.609369 2241.964416 264.997242 2260.603886 278.754946 C 2279.169389 292.586616 2297.439029 306.862083 2315.412803 321.581347 C 2333.312611 336.300611 2350.842589 351.389706 2368.076702 366.996563 C 2385.236849 382.529455 2402.027165 398.506143 2418.373684 414.926629 C 2434.794169 431.347114 2450.770858 448.13743 2466.377715 465.297577 C 2481.910607 482.457724 2497.073668 499.987701 2511.792931 517.961476 C 2526.512195 535.861284 2540.713696 554.130923 2554.545366 572.770393 C 2568.377036 591.409863 2581.690943 610.345197 2594.561053 629.576396 C 2607.50513 648.881561 2619.857477 668.482591 2631.766027 688.379485 C 2643.674577 708.27638 2655.13933 728.395173 2666.08632 748.883796 C 2676.959344 769.298454 2687.388572 790.008976 2697.300036 810.941396 C 2707.2115 831.947783 2716.605201 853.102102 2725.481139 874.552285 C 2734.357077 895.928502 2742.715252 917.600584 2750.555664 939.420599 C 2758.32211 961.240613 2765.644758 983.282526 2772.301712 1005.398405 C 2779.032632 1027.58825 2785.245788 1049.926027 2790.867216 1072.411736 C 2796.488643 1094.971412 2801.592307 1117.531088 2806.104242 1140.312662 C 2810.616178 1163.02027 2814.61035 1185.875811 2818.012793 1208.805317 C 2821.415236 1231.734824 2824.225949 1254.738296 2826.5189 1277.815735 C 2828.811851 1300.893174 2830.513072 1323.970613 2831.622564 1347.122018 C 2832.806023 1370.347389 2833.323786 1393.498794 2833.323786 1416.650199 Z M 2833.323786 1416.650199 "
                transform="matrix(0.0528113,0,0,0.0528113,112.684838,112.684833)" />
        </g>
        <path style=" stroke:none;fill-rule:evenodd;fill:#ffffff;fill-opacity:1;"
            d="M 231.367188 162.363281 L 143.636719 162.363281 C 142.972656 162.363281 142.4375 161.828125 142.4375 161.164062 C 142.4375 160.503906 142.972656 159.964844 143.636719 159.964844 L 231.367188 159.964844 C 232.027344 159.964844 232.566406 160.503906 232.566406 161.164062 C 232.566406 161.828125 232.027344 162.363281 231.367188 162.363281 Z M 231.367188 162.363281 " />
        <path style=" stroke:none;fill-rule:evenodd;fill:#ffffff;fill-opacity:1;"
            d="M 226.082031 232.566406 L 148.921875 232.566406 C 145.34375 232.566406 142.4375 229.65625 142.4375 226.082031 L 142.4375 148.917969 C 142.4375 145.34375 145.34375 142.4375 148.921875 142.4375 L 226.082031 142.4375 C 229.65625 142.4375 232.566406 145.34375 232.566406 148.917969 L 232.566406 226.082031 C 232.566406 229.65625 229.65625 232.566406 226.082031 232.566406 Z M 148.921875 144.835938 C 146.667969 144.835938 144.835938 146.667969 144.835938 148.917969 L 144.835938 226.082031 C 144.835938 228.332031 146.667969 230.167969 148.921875 230.167969 L 226.082031 230.167969 C 228.335938 230.167969 230.167969 228.335938 230.167969 226.082031 L 230.167969 148.917969 C 230.167969 146.667969 228.335938 144.835938 226.082031 144.835938 Z M 148.921875 144.835938 " />
        <path style=" stroke:none;fill-rule:evenodd;fill:#01fff4;fill-opacity:1;"
            d="M 222.558594 227.28125 L 152.445312 227.28125 C 149.839844 227.28125 147.722656 225.160156 147.722656 222.558594 L 147.722656 169.972656 C 147.722656 167.371094 149.839844 165.25 152.445312 165.25 L 222.558594 165.25 C 225.160156 165.25 227.28125 167.371094 227.28125 169.972656 L 227.28125 222.558594 C 227.28125 225.164062 225.160156 227.28125 222.558594 227.28125 Z M 152.445312 167.652344 C 151.164062 167.652344 150.121094 168.691406 150.121094 169.972656 L 150.121094 222.558594 C 150.121094 223.839844 151.164062 224.882812 152.445312 224.882812 L 222.558594 224.882812 C 223.839844 224.882812 224.882812 223.839844 224.882812 222.558594 L 224.882812 169.972656 C 224.882812 168.691406 223.839844 167.652344 222.558594 167.652344 Z M 152.445312 167.652344 " />
        <path style=" stroke:none;fill-rule:evenodd;fill:#7cff01;fill-opacity:1;"
            d="M 156.707031 155.414062 C 155.558594 155.414062 154.476562 154.96875 153.664062 154.15625 C 151.988281 152.476562 151.988281 149.746094 153.664062 148.066406 C 154.476562 147.253906 155.558594 146.808594 156.707031 146.808594 C 157.859375 146.808594 158.941406 147.253906 159.753906 148.066406 C 161.429688 149.746094 161.429688 152.476562 159.753906 154.15625 C 158.941406 154.96875 157.859375 155.414062 156.707031 155.414062 Z M 156.707031 149.203125 C 156.199219 149.203125 155.722656 149.402344 155.359375 149.761719 C 154.617188 150.507812 154.617188 151.714844 155.359375 152.457031 C 156.082031 153.179688 157.335938 153.175781 158.054688 152.457031 C 158.796875 151.714844 158.796875 150.503906 158.054688 149.761719 C 157.695312 149.402344 157.21875 149.203125 156.707031 149.203125 Z M 156.707031 149.203125 " />
        <path style=" stroke:none;fill-rule:evenodd;fill:#7cff01;fill-opacity:1;"
            d="M 162.703125 157.996094 C 162.394531 157.996094 162.089844 157.878906 161.855469 157.644531 L 158.203125 153.996094 C 157.738281 153.527344 157.738281 152.765625 158.203125 152.296875 C 158.671875 151.828125 159.433594 151.828125 159.902344 152.296875 L 163.550781 155.945312 C 164.019531 156.414062 164.019531 157.175781 163.550781 157.644531 C 163.316406 157.878906 163.007812 157.996094 162.703125 157.996094 Z M 162.703125 157.996094 " />
        <path style=" stroke:none;fill-rule:evenodd;fill:#ff1178;fill-opacity:1;"
            d="M 216.488281 157.058594 C 213.921875 157.058594 211.832031 154.96875 211.832031 152.402344 C 211.832031 149.832031 213.921875 147.746094 216.488281 147.746094 C 219.054688 147.746094 221.144531 149.832031 221.144531 152.402344 C 221.144531 154.96875 219.054688 157.058594 216.488281 157.058594 Z M 216.488281 150.144531 C 215.242188 150.144531 214.230469 151.15625 214.230469 152.402344 C 214.230469 153.644531 215.242188 154.65625 216.488281 154.65625 C 217.730469 154.65625 218.746094 153.644531 218.746094 152.402344 C 218.746094 151.15625 217.730469 150.144531 216.488281 150.144531 Z M 216.488281 150.144531 " />
        <path style=" stroke:none;fill-rule:evenodd;fill:#ff1178;fill-opacity:1;"
            d="M 202.679688 157.058594 C 200.113281 157.058594 198.023438 154.96875 198.023438 152.402344 C 198.023438 149.832031 200.113281 147.746094 202.679688 147.746094 C 205.25 147.746094 207.335938 149.832031 207.335938 152.402344 C 207.335938 154.96875 205.25 157.058594 202.679688 157.058594 Z M 202.679688 150.144531 C 201.4375 150.144531 200.421875 151.15625 200.421875 152.402344 C 200.421875 153.644531 201.4375 154.65625 202.679688 154.65625 C 203.925781 154.65625 204.9375 153.644531 204.9375 152.402344 C 204.9375 151.15625 203.925781 150.144531 202.679688 150.144531 Z M 202.679688 150.144531 " />
        <path style=" stroke:none;fill-rule:evenodd;fill:#ff1178;fill-opacity:1;"
            d="M 188.875 157.058594 C 186.304688 157.058594 184.21875 154.96875 184.21875 152.402344 C 184.21875 149.832031 186.304688 147.746094 188.875 147.746094 C 191.441406 147.746094 193.53125 149.832031 193.53125 152.402344 C 193.53125 154.96875 191.441406 157.058594 188.875 157.058594 Z M 188.875 150.144531 C 187.628906 150.144531 186.617188 151.15625 186.617188 152.402344 C 186.617188 153.644531 187.628906 154.65625 188.875 154.65625 C 190.117188 154.65625 191.132812 153.644531 191.132812 152.402344 C 191.132812 151.15625 190.117188 150.144531 188.875 150.144531 Z M 188.875 150.144531 " />
        <path style=" stroke:none;fill-rule:evenodd;fill:#ff1178;fill-opacity:1;"
            d="M 208.980469 221.101562 L 204.835938 221.101562 C 204.226562 221.101562 203.710938 220.640625 203.644531 220.035156 L 203.234375 216.355469 C 202.738281 216.128906 202.269531 215.855469 201.828125 215.542969 L 198.433594 217.027344 C 197.871094 217.273438 197.21875 217.058594 196.914062 216.527344 L 194.839844 212.9375 C 194.535156 212.40625 194.675781 211.734375 195.167969 211.371094 L 198.148438 209.175781 C 198.125 208.90625 198.113281 208.632812 198.113281 208.363281 C 198.113281 208.089844 198.125 207.820312 198.148438 207.550781 L 195.167969 205.355469 C 194.675781 204.992188 194.535156 204.316406 194.839844 203.789062 L 196.914062 200.199219 C 197.21875 199.667969 197.875 199.453125 198.433594 199.699219 L 201.828125 201.183594 C 202.269531 200.871094 202.738281 200.597656 203.234375 200.371094 L 203.644531 196.691406 C 203.710938 196.082031 204.222656 195.625 204.835938 195.625 L 208.984375 195.625 C 209.59375 195.625 210.105469 196.082031 210.175781 196.691406 L 210.585938 200.371094 C 211.078125 200.597656 211.546875 200.867188 211.992188 201.183594 L 215.386719 199.699219 C 215.945312 199.453125 216.601562 199.667969 216.90625 200.195312 L 218.980469 203.789062 C 219.285156 204.316406 219.144531 204.992188 218.652344 205.355469 L 215.667969 207.550781 C 215.691406 207.820312 215.707031 208.089844 215.707031 208.363281 C 215.707031 208.632812 215.691406 208.902344 215.667969 209.171875 L 218.652344 211.371094 C 219.144531 211.730469 219.285156 212.40625 218.980469 212.933594 L 216.90625 216.527344 C 216.601562 217.058594 215.945312 217.273438 215.386719 217.027344 L 211.992188 215.539062 C 211.550781 215.855469 211.078125 216.125 210.585938 216.355469 L 210.175781 220.035156 C 210.105469 220.640625 209.59375 221.101562 208.984375 221.101562 Z M 205.910156 218.703125 L 207.910156 218.703125 L 208.28125 215.382812 C 208.332031 214.925781 208.636719 214.539062 209.066406 214.386719 C 209.792969 214.125 210.457031 213.742188 211.042969 213.242188 C 211.394531 212.945312 211.882812 212.875 212.300781 213.058594 L 215.367188 214.398438 L 216.367188 212.664062 L 213.671875 210.683594 C 213.304688 210.414062 213.125 209.953125 213.203125 209.503906 C 213.273438 209.128906 213.308594 208.742188 213.308594 208.359375 C 213.308594 207.976562 213.273438 207.59375 213.203125 207.21875 C 213.125 206.765625 213.304688 206.308594 213.671875 206.039062 L 216.367188 204.058594 L 215.367188 202.324219 L 212.300781 203.664062 C 211.882812 203.847656 211.394531 203.773438 211.042969 203.480469 C 210.457031 202.980469 209.789062 202.59375 209.070312 202.335938 C 208.636719 202.179688 208.332031 201.796875 208.28125 201.339844 L 207.910156 198.019531 L 205.90625 198.019531 L 205.535156 201.339844 C 205.484375 201.796875 205.179688 202.183594 204.75 202.335938 C 204.027344 202.59375 203.363281 202.980469 202.773438 203.480469 C 202.421875 203.773438 201.933594 203.847656 201.515625 203.664062 L 198.453125 202.324219 L 197.453125 204.058594 L 200.144531 206.039062 C 200.511719 206.3125 200.695312 206.769531 200.613281 207.21875 C 200.546875 207.589844 200.511719 207.976562 200.511719 208.363281 C 200.511719 208.746094 200.546875 209.132812 200.613281 209.503906 C 200.695312 209.953125 200.511719 210.414062 200.144531 210.683594 L 197.453125 212.664062 L 198.453125 214.398438 L 201.515625 213.058594 C 201.9375 212.875 202.421875 212.945312 202.773438 213.242188 C 203.363281 213.742188 204.027344 214.125 204.75 214.386719 C 205.179688 214.539062 205.484375 214.925781 205.539062 215.382812 L 205.90625 218.703125 Z M 205.910156 218.703125 " />
        <path style=" stroke:none;fill-rule:evenodd;fill:#fff205;fill-opacity:1;"
            d="M 206.910156 213.023438 C 204.335938 213.023438 202.246094 210.933594 202.246094 208.363281 C 202.246094 205.789062 204.335938 203.699219 206.910156 203.699219 C 209.480469 203.699219 211.574219 205.789062 211.574219 208.363281 C 211.574219 210.933594 209.480469 213.023438 206.910156 213.023438 Z M 206.910156 206.09375 C 205.660156 206.09375 204.644531 207.113281 204.644531 208.359375 C 204.644531 209.609375 205.660156 210.625 206.910156 210.625 C 208.15625 210.625 209.175781 209.609375 209.175781 208.359375 C 209.175781 207.113281 208.15625 206.09375 206.910156 206.09375 Z M 206.910156 206.09375 " />
        <path style=" stroke:none;fill-rule:evenodd;fill:#ff1178;fill-opacity:1;"
            d="M 184.640625 185.226562 C 184.335938 185.226562 184.027344 185.109375 183.792969 184.875 L 178.09375 179.179688 C 177.625 178.710938 177.625 177.949219 178.09375 177.480469 L 183.792969 171.78125 C 184.261719 171.3125 185.023438 171.3125 185.492188 171.78125 C 185.957031 172.25 185.957031 173.011719 185.492188 173.480469 L 180.640625 178.328125 L 185.492188 183.179688 C 185.957031 183.648438 185.957031 184.40625 185.492188 184.875 C 185.257812 185.109375 184.949219 185.226562 184.640625 185.226562 Z M 184.640625 185.226562 " />
        <path style=" stroke:none;fill-rule:evenodd;fill:#ff1178;fill-opacity:1;"
            d="M 190.785156 185.226562 C 190.480469 185.226562 190.171875 185.109375 189.9375 184.875 C 189.46875 184.410156 189.46875 183.648438 189.9375 183.179688 L 194.789062 178.328125 L 189.9375 173.480469 C 189.46875 173.011719 189.46875 172.25 189.9375 171.78125 C 190.40625 171.3125 191.167969 171.3125 191.632812 171.78125 L 197.332031 177.480469 C 197.800781 177.949219 197.800781 178.710938 197.332031 179.179688 L 191.632812 184.875 C 191.402344 185.113281 191.09375 185.230469 190.785156 185.230469 Z M 190.785156 185.226562 " />
        <path style=" stroke:none;fill-rule:evenodd;fill:#fff205;fill-opacity:1;"
            d="M 217.941406 192.402344 L 157.0625 192.402344 C 156.398438 192.402344 155.863281 191.867188 155.863281 191.203125 C 155.863281 190.539062 156.398438 190.003906 157.0625 190.003906 L 217.941406 190.003906 C 218.601562 190.003906 219.140625 190.539062 219.140625 191.203125 C 219.140625 191.867188 218.601562 192.402344 217.941406 192.402344 Z M 217.941406 192.402344 " />
        <path style=" stroke:none;fill-rule:evenodd;fill:#ffffff;fill-opacity:1;"
            d="M 189.300781 199.578125 L 157.0625 199.578125 C 156.398438 199.578125 155.863281 199.039062 155.863281 198.378906 C 155.863281 197.714844 156.398438 197.179688 157.0625 197.179688 L 189.300781 197.179688 C 189.960938 197.179688 190.5 197.714844 190.5 198.378906 C 190.5 199.039062 189.960938 199.578125 189.300781 199.578125 Z M 189.300781 199.578125 " />
        <path style=" stroke:none;fill-rule:evenodd;fill:#7cff01;fill-opacity:1;"
            d="M 189.300781 206.75 L 157.0625 206.75 C 156.398438 206.75 155.863281 206.214844 155.863281 205.550781 C 155.863281 204.890625 156.398438 204.351562 157.0625 204.351562 L 189.300781 204.351562 C 189.960938 204.351562 190.5 204.890625 190.5 205.550781 C 190.5 206.214844 189.960938 206.75 189.300781 206.75 Z M 189.300781 206.75 " />
        <path style=" stroke:none;fill-rule:evenodd;fill:#ff1178;fill-opacity:1;"
            d="M 189.300781 213.925781 L 157.0625 213.925781 C 156.398438 213.925781 155.863281 213.386719 155.863281 212.726562 C 155.863281 212.0625 156.398438 211.527344 157.0625 211.527344 L 189.300781 211.527344 C 189.960938 211.527344 190.5 212.0625 190.5 212.726562 C 190.5 213.386719 189.960938 213.925781 189.300781 213.925781 Z M 189.300781 213.925781 " />
        <path style=" stroke:none;fill-rule:evenodd;fill:#fff205;fill-opacity:1;"
            d="M 189.300781 221.101562 L 157.0625 221.101562 C 156.398438 221.101562 155.863281 220.5625 155.863281 219.898438 C 155.863281 219.238281 156.398438 218.699219 157.0625 218.699219 L 189.300781 218.699219 C 189.960938 218.699219 190.5 219.238281 190.5 219.898438 C 190.5 220.5625 189.960938 221.101562 189.300781 221.101562 Z M 189.300781 221.101562 " />
    </g>
</svg>